<svg width="248" height="264" viewBox="0 0 248 264" fill="none" xmlns="http://www.w3.org/2000/svg">
<path d="M0.957 254V253.304L14.529 231.525H5.539L2.552 237.325H1.798L2.494 230.8H18.444V231.525L4.843 253.304H14.993L17.98 247.069H18.734L18.038 254H0.957ZM26.8125 254V253.391L29.4805 252.956V231.844L26.8125 231.438V230.8H44.2705V237.441H43.4875L41.2545 231.525H32.6705V241.965H36.4405L38.1515 237.76H38.9055V246.924H38.1515L36.4115 242.661H32.6705V253.304H41.7765L44.1545 246.924H44.9085V254H26.8125ZM53.5999 254V253.391L56.2969 252.231V232.569L53.5999 231.438V230.8H58.9939L71.4929 248.316V232.569L68.7959 231.438V230.8H74.9729V231.438L72.2179 232.569V254H71.4929L57.0219 233.671V252.231L59.8059 253.391V254H53.5999ZM94.2711 254.58C92.1637 254.58 90.2787 254.068 88.6161 253.043C86.9534 252.018 85.6581 250.588 84.7301 248.751C83.8021 246.895 83.3381 244.778 83.3381 242.4C83.3381 240.022 83.8021 237.915 84.7301 236.078C85.6581 234.222 86.9534 232.782 88.6161 231.757C90.2787 230.732 92.1637 230.22 94.2711 230.22C96.3784 230.22 98.2634 230.732 99.9261 231.757C101.589 232.782 102.884 234.222 103.812 236.078C104.74 237.915 105.204 240.022 105.204 242.4C105.204 244.778 104.74 246.895 103.812 248.751C102.884 250.588 101.589 252.018 99.9261 253.043C98.2634 254.068 96.3784 254.58 94.2711 254.58ZM94.2711 253.913C95.6631 253.913 96.9101 253.546 98.0121 252.811C99.1334 252.076 100.013 251.013 100.651 249.621C101.289 248.21 101.608 246.547 101.608 244.633V240.167C101.608 238.253 101.289 236.6 100.651 235.208C100.013 233.797 99.1334 232.724 98.0121 231.989C96.9101 231.254 95.6631 230.887 94.2711 230.887C92.8597 230.887 91.6031 231.254 90.5011 231.989C89.3991 232.724 88.5291 233.797 87.8911 235.208C87.2531 236.6 86.9341 238.253 86.9341 240.167V244.633C86.9341 246.547 87.2531 248.21 87.8911 249.621C88.5291 251.013 89.3991 252.076 90.5011 252.811C91.6031 253.546 92.8597 253.913 94.2711 253.913ZM126.477 254V253.391L129.145 252.956V231.844L126.477 231.438V230.8H143.935V237.441H143.152L140.919 231.525H132.335V242.4H137.236L138.947 238.195H139.73V247.359H138.947L137.236 243.096H132.335V252.956L135.003 253.391V254H126.477ZM151.762 254V253.391L154.43 252.956V231.844L151.762 231.438V230.8H160.288V231.438L157.62 231.844V252.956L160.288 253.391V254H151.762ZM168.408 254V253.391L171.076 252.956V231.844L168.408 231.438V230.8H176.934V231.438L174.266 231.844V253.304H182.937L185.315 246.924H186.098V254H168.408ZM205.842 254.29L197.2 231.844V252.231L199.984 253.391V254H193.778V253.391L196.504 252.231V231.844L193.836 231.438V230.8H200.245L207.524 249.418L214.948 230.8H220.806V231.438L218.138 231.844V252.956L220.806 253.391V254H212.28V253.391L214.948 252.956V232.714L206.364 254.29H205.842ZM238.111 254.58C236.313 254.58 234.544 254.068 232.804 253.043L230.339 254.29H229.701V246.837H230.339L232.833 252.231C234.437 253.372 236.274 253.942 238.343 253.942C240.044 253.942 241.446 253.497 242.548 252.608C243.669 251.699 244.23 250.433 244.23 248.809C244.23 247.63 243.872 246.702 243.157 246.025C242.441 245.329 241.281 244.778 239.677 244.372L234.863 243.125C233.181 242.68 231.914 241.926 231.064 240.863C230.213 239.78 229.788 238.504 229.788 237.035C229.788 235.701 230.049 234.522 230.571 233.497C231.112 232.453 231.895 231.651 232.92 231.09C233.944 230.51 235.162 230.22 236.574 230.22C238.333 230.22 239.909 230.52 241.301 231.119L243.418 230.22H244.056V236.136H243.418L241.33 231.902C239.88 231.206 238.304 230.858 236.603 230.858C234.921 230.858 233.596 231.293 232.63 232.163C231.663 233.014 231.18 234.145 231.18 235.556C231.18 236.6 231.518 237.422 232.195 238.021C232.891 238.62 233.906 239.094 235.24 239.442L240.431 240.805C242.113 241.23 243.36 241.965 244.172 243.009C245.003 244.034 245.419 245.6 245.419 247.707C245.419 249.853 244.752 251.535 243.418 252.753C242.103 253.971 240.334 254.58 238.111 254.58Z" fill="white"/>
<path d="M84.4999 69.2058L108.5 52.2058V169.206L84.4999 186.206V69.2058Z" fill="#003366"/>
<path d="M123.5 42.0813L147.5 25.0813V142.081L123.5 159.081V42.0813Z" fill="#003366"/>
<path d="M108.5 130.706L132.5 113.706V139.206L108.5 156.206V130.706Z" fill="#003366"/>
<path d="M108.5 130.706L132.5 113.706V139.206L108.5 156.206V130.706Z" fill="#003366"/>
<path d="M108.5 130.706L132.5 113.706V139.206L108.5 156.206V130.706Z" fill="#003366"/>
<path d="M108.5 130.706L132.5 113.706V139.206L108.5 156.206V130.706Z" fill="#003366"/>
<path d="M108.5 69.2058L132.5 52.2058V77.706L108.5 94.706V69.2058Z" fill="#003366"/>
<path d="M108.5 69.2058L132.5 52.2058V77.706L108.5 94.706V69.2058Z" fill="#003366"/>
<path d="M108.5 69.2058L132.5 52.2058V77.706L108.5 94.706V69.2058Z" fill="#003366"/>
<path d="M108.5 69.2058L132.5 52.2058V77.706L108.5 94.706V69.2058Z" fill="#003366"/>
<path fill-rule="evenodd" clip-rule="evenodd" d="M147.5 25.0814L92.906 0.191162L68.9999 17.0814L85.8696 24.7726L70.8602 34.921L53.9061 27.1914L30 44.0816L84.5937 68.9719L108.5 52.0816L91.782 44.4596L106.791 34.3112L123.594 41.9717L147.5 25.0814Z" fill="#1E90FF"/>
<path fill-rule="evenodd" clip-rule="evenodd" d="M202 166.663L147.406 141.773L123.5 158.663L139.884 166.133L124.874 176.281L108.406 168.773L84.4999 185.663L139.094 210.553L163 193.663L145.796 185.82L160.805 175.671L178.093 183.553L202 166.663Z" fill="#1E90FF"/>
</svg>
