<svg width="301" height="170" viewBox="0 0 301 170" fill="none" xmlns="http://www.w3.org/2000/svg">
<rect width="300.885" height="170" fill="black"/>
<path d="M187.625 24.1751L183.825 20.375L112.375 91.8249L116.175 95.625L121.55 90.25H176.875C178.3 90.2479 179.666 89.6809 180.673 88.6733C181.681 87.6658 182.248 86.2999 182.25 84.875V29.5501L187.625 24.1751ZM176.875 84.875H126.925L147.869 63.9313L154.262 70.3249C155.27 71.3325 156.637 71.8986 158.062 71.8986C159.488 71.8986 160.855 71.3325 161.863 70.3249L166.125 66.0625L176.875 76.8044V84.875ZM176.875 69.2015L169.925 62.2516C168.917 61.244 167.55 60.6779 166.125 60.6779C164.7 60.6779 163.333 61.244 162.325 62.2516L158.062 66.514L151.674 60.1258L176.875 34.9251V69.2015Z" fill="#F4F9FF"/>
<path d="M123.125 74.125V66.0625L136.562 52.6331L140.252 56.3257L144.058 52.5202L140.363 48.8249C139.355 47.8172 137.988 47.2512 136.562 47.2512C135.137 47.2512 133.77 47.8172 132.762 48.8249L123.125 58.4623V31.125H166.125V25.75H123.125C121.7 25.7514 120.334 26.3182 119.326 27.3259C118.318 28.3336 117.751 29.6999 117.75 31.125V74.125H123.125Z" fill="#F4F9FF"/>
<path d="M51.642 127.924L50.454 125.702H50.366L50.586 127.924V138H48.87V122.358H49.838L57.208 132.632L58.352 134.744H58.462L58.22 132.632V122.6H59.936V138.242H58.968L51.642 127.924ZM63.0347 130.3C63.0347 127.733 63.5774 125.768 64.6627 124.404C65.7481 123.025 67.2954 122.336 69.3047 122.336C70.3901 122.336 71.3287 122.527 72.1207 122.908C72.9127 123.289 73.5654 123.832 74.0787 124.536C74.6067 125.225 74.9954 126.061 75.2447 127.044C75.4941 128.012 75.6187 129.097 75.6187 130.3C75.6187 132.867 75.0687 134.839 73.9687 136.218C72.8834 137.582 71.3287 138.264 69.3047 138.264C68.2341 138.264 67.3027 138.073 66.5107 137.692C65.7334 137.311 65.0807 136.775 64.5527 136.086C64.0394 135.382 63.6581 134.546 63.4087 133.578C63.1594 132.595 63.0347 131.503 63.0347 130.3ZM64.9707 130.3C64.9707 131.151 65.0514 131.957 65.2127 132.72C65.3887 133.483 65.6527 134.157 66.0047 134.744C66.3567 135.316 66.8041 135.778 67.3467 136.13C67.9041 136.467 68.5567 136.636 69.3047 136.636C70.6687 136.636 71.7394 136.123 72.5167 135.096C73.2941 134.055 73.6827 132.456 73.6827 130.3C73.6827 129.464 73.5947 128.665 73.4187 127.902C73.2574 127.125 72.9934 126.45 72.6267 125.878C72.2747 125.291 71.8201 124.829 71.2627 124.492C70.7201 124.14 70.0674 123.964 69.3047 123.964C67.9554 123.964 66.8921 124.485 66.1147 125.526C65.3521 126.553 64.9707 128.144 64.9707 130.3ZM84.995 122.6H86.821V138H84.995V122.6ZM102.815 127.66L103.035 125.35H102.925L102.089 127.462L98.0854 134.414H97.5354L93.2894 127.44L92.4974 125.35H92.3874L92.6954 127.638V138H90.9794V122.6H92.3434L97.1614 130.476L97.8874 132.192H97.9314L98.6134 130.432L103.211 122.6H104.641V138H102.815V127.66ZM115.708 133.732H110.032L108.492 138H106.688L112.518 122.358H113.354L119.206 138H117.292L115.708 133.732ZM110.626 132.148H115.158L113.442 127.462L112.892 125.13H112.87L112.32 127.506L110.626 132.148ZM125.884 130.322H131.054V137.098C130.82 137.274 130.534 137.435 130.196 137.582C129.874 137.729 129.522 137.853 129.14 137.956C128.774 138.059 128.385 138.132 127.974 138.176C127.578 138.235 127.19 138.264 126.808 138.264C125.826 138.264 124.924 138.11 124.102 137.802C123.281 137.479 122.57 136.995 121.968 136.35C121.367 135.69 120.898 134.861 120.56 133.864C120.223 132.852 120.054 131.664 120.054 130.3C120.054 128.877 120.26 127.66 120.67 126.648C121.081 125.636 121.616 124.815 122.276 124.184C122.936 123.539 123.677 123.069 124.498 122.776C125.32 122.483 126.141 122.336 126.962 122.336C127.842 122.336 128.568 122.387 129.14 122.49C129.712 122.578 130.196 122.703 130.592 122.864L130.13 124.47C129.426 124.133 128.422 123.964 127.116 123.964C126.5 123.964 125.884 124.074 125.268 124.294C124.667 124.499 124.124 124.851 123.64 125.35C123.156 125.849 122.76 126.501 122.452 127.308C122.144 128.115 121.99 129.112 121.99 130.3C121.99 131.385 122.115 132.324 122.364 133.116C122.614 133.908 122.958 134.568 123.398 135.096C123.853 135.609 124.396 135.998 125.026 136.262C125.657 136.511 126.346 136.636 127.094 136.636C128.033 136.636 128.832 136.453 129.492 136.086V131.796L125.884 131.356V130.322ZM134.163 122.6H142.545V124.228H135.989V129.266H141.995V130.894H135.989V136.372H142.655V138H134.163V122.6ZM158.44 133.732H152.764L151.224 138H149.42L155.25 122.358H156.086L161.938 138H160.024L158.44 133.732ZM153.358 132.148H157.89L156.174 127.462L155.624 125.13H155.602L155.052 127.506L153.358 132.148ZM166.999 133.182L167.527 135.514H167.549L168.121 133.138L171.839 122.6H173.665L167.835 138.242H167.021L161.081 122.6H163.083L166.999 133.182ZM181.837 133.732H176.161L174.621 138H172.817L178.647 122.358H179.483L185.335 138H183.421L181.837 133.732ZM176.755 132.148H181.287L179.571 127.462L179.021 125.13H178.999L178.449 127.506L176.755 132.148ZM187.798 122.6H189.624V138H187.798V122.6ZM202.89 138H193.782V122.6H195.608V136.372H202.89V138ZM212.602 133.732H206.926L205.386 138H203.582L209.412 122.358H210.248L216.1 138H214.186L212.602 133.732ZM207.52 132.148H212.052L210.336 127.462L209.786 125.13H209.764L209.214 127.506L207.52 132.148ZM227.429 126.12C227.429 126.487 227.371 126.861 227.253 127.242C227.136 127.623 226.96 127.983 226.725 128.32C226.491 128.643 226.19 128.929 225.823 129.178C225.457 129.427 225.024 129.618 224.525 129.75V129.838C224.965 129.911 225.383 130.036 225.779 130.212C226.19 130.388 226.549 130.63 226.857 130.938C227.165 131.246 227.415 131.62 227.605 132.06C227.796 132.5 227.891 133.021 227.891 133.622C227.891 134.414 227.723 135.103 227.385 135.69C227.063 136.262 226.63 136.731 226.087 137.098C225.559 137.465 224.951 137.736 224.261 137.912C223.572 138.088 222.868 138.176 222.149 138.176C221.9 138.176 221.607 138.176 221.269 138.176C220.932 138.176 220.58 138.161 220.213 138.132C219.847 138.117 219.48 138.088 219.113 138.044C218.747 138.015 218.424 137.963 218.145 137.89V122.732C218.688 122.644 219.319 122.571 220.037 122.512C220.756 122.453 221.541 122.424 222.391 122.424C222.963 122.424 223.543 122.475 224.129 122.578C224.731 122.666 225.273 122.849 225.757 123.128C226.241 123.392 226.637 123.766 226.945 124.25C227.268 124.734 227.429 125.357 227.429 126.12ZM222.325 136.592C222.795 136.592 223.249 136.541 223.689 136.438C224.129 136.321 224.518 136.145 224.855 135.91C225.193 135.661 225.457 135.36 225.647 135.008C225.853 134.656 225.955 134.238 225.955 133.754C225.955 133.153 225.831 132.669 225.581 132.302C225.347 131.935 225.031 131.649 224.635 131.444C224.254 131.239 223.821 131.099 223.337 131.026C222.853 130.953 222.369 130.916 221.885 130.916H219.971V136.438C220.074 136.467 220.221 136.489 220.411 136.504C220.602 136.519 220.807 136.533 221.027 136.548C221.247 136.563 221.475 136.577 221.709 136.592C221.944 136.592 222.149 136.592 222.325 136.592ZM221.115 129.376C221.365 129.376 221.665 129.369 222.017 129.354C222.369 129.339 222.663 129.317 222.897 129.288C223.249 129.171 223.579 129.031 223.887 128.87C224.195 128.694 224.467 128.496 224.701 128.276C224.951 128.041 225.141 127.777 225.273 127.484C225.42 127.176 225.493 126.846 225.493 126.494C225.493 126.01 225.398 125.614 225.207 125.306C225.031 124.983 224.789 124.727 224.481 124.536C224.173 124.345 223.821 124.213 223.425 124.14C223.029 124.052 222.626 124.008 222.215 124.008C221.731 124.008 221.284 124.023 220.873 124.052C220.477 124.067 220.177 124.096 219.971 124.14V129.376H221.115ZM240.101 138H230.993V122.6H232.819V136.372H240.101V138ZM242.358 122.6H250.74V124.228H244.184V129.266H250.19V130.894H244.184V136.372H250.85V138H242.358V122.6Z" fill="#F4F9FF"/>
</svg>
